# xmcd
#
# Track frame offsets: 
#        150
#        12176
#        39905
#        63351
#        102019
#        122338
#        133987
#        152484
#        198427
#        207842
#        222694
#        236961
#        263074
#
# Disc length: 3584 seconds
#
# Revision: 0
# Processed by: cddbd v1.4PL0 Copyright (c) Steve Scherf et al.
# Submitted via: ExactAudioCopy v0.95a2
#
DISCID=b50dfe0d
DTITLE=B.B. King - Blues collection
DYEAR=2003
DGENRE=Blues
TTITLE0=How Blue Can You Get?
TTITLE1=Sweet sixteen
TTITLE2=Ghetto Woman
TTITLE3=Why I Sing The Blues
TTITLE4=Hummingbird
TTITLE5=All Over Again
TTITLE6=Guess Who
TTITLE7=Lucille
TTITLE8=Sneaking Around
TTITLE9=I Got Some Help...
TTITLE10=Ain't Nobody Home
TTITLE11=I Like To Live The Love
TTITLE12=Data
EXTD=B.B. King\nThe Big Blues collection series - Volume 3 | Sponsored
EXTD=by Efes Pilsener | 2003\nCompilation by Mysteria Publishing\nRem
EXTD=astering by Mysteria Publishing\n\nSubmitted by Commander Jameson
EXTT0=
EXTT1=
EXTT2=
EXTT3=
EXTT4=
EXTT5=
EXTT6=
EXTT7=
EXTT8=
EXTT9=
EXTT10=
EXTT11=
EXTT12=
PLAYORDER=
